%TF.GenerationSoftware,KiCad,Pcbnew,10.0.5*%
%TF.CreationDate,2026-08-25T22:20:41-07:00*%
%TF.ProjectId,DE25-nano-brdige,44453235-2d6e-4616-9e6f-2d6272646967,rev?*%
%TF.SameCoordinates,Original*%
%TF.FileFunction,Copper,L1,Top*%
%TF.FilePolarity,Positive*%
%FSLAX46Y46*%
G04 Gerber Fmt 4.6, Leading zero omitted, Abs format (unit mm)*
G04 Created by KiCad (PCBNEW 10.0.5) date 2026-08-25 22:20:41*
%MOMM*%
%LPD*%
G01*
G04 APERTURE LIST*
G04 Aperture macros list*
%AMRoundRect*
0 Rectangle with rounded corners*
0 $1 Rounding radius*
0 $2 $3 $4 $5 $6 $7 $8 $9 X,Y pos of 4 corners*
0 Add a 4 corners polygon primitive as box body*
4,1,4,$2,$3,$4,$5,$6,$7,$8,$9,$2,$3,0*
0 Add four circle primitives for the rounded corners*
1,1,$1+$1,$2,$3*
1,1,$1+$1,$4,$5*
1,1,$1+$1,$6,$7*
1,1,$1+$1,$8,$9*
0 Add four rect primitives between the rounded corners*
20,1,$1+$1,$2,$3,$4,$5,0*
20,1,$1+$1,$4,$5,$6,$7,0*
20,1,$1+$1,$6,$7,$8,$9,0*
20,1,$1+$1,$8,$9,$2,$3,0*%
G04 Aperture macros list end*
%TA.AperFunction,ComponentPad*%
%ADD10R,1.700000X1.700000*%
%TD*%
%TA.AperFunction,ComponentPad*%
%ADD11O,1.700000X1.700000*%
%TD*%
%TA.AperFunction,SMDPad,CuDef*%
%ADD12RoundRect,0.200000X-0.200000X-0.275000X0.200000X-0.275000X0.200000X0.275000X-0.200000X0.275000X0*%
%TD*%
%TA.AperFunction,ComponentPad*%
%ADD13R,0.850000X0.850000*%
%TD*%
%TA.AperFunction,Conductor*%
%ADD14C,0.200000*%
%TD*%
G04 APERTURE END LIST*
D10*
%TO.P,J3,1,Pin_1_1*%
%TO.N,unconnected-(J3-Pin_1-Pad1)*%
X154000000Y-67000000D03*
D11*
%TO.P,J3,2,Pin_2_2*%
%TO.N,unconnected-(J3-Pin_2-Pad2)*%
X154000000Y-64460000D03*
%TO.P,J3,3,Pin_3_3*%
%TO.N,unconnected-(J3-Pin_3-Pad3)*%
X156540000Y-67000000D03*
%TO.P,J3,4,Pin_4_4*%
%TO.N,unconnected-(J3-Pin_4-Pad4)*%
X156540000Y-64460000D03*
%TO.P,J3,5,Pin_5_5*%
%TO.N,unconnected-(J3-Pin_5-Pad5)*%
X159080000Y-67000000D03*
%TO.P,J3,6,Pin_6_6*%
%TO.N,unconnected-(J3-Pin_6-Pad6)*%
X159080000Y-64460000D03*
%TO.P,J3,7,Pin_7_7*%
%TO.N,unconnected-(J3-Pin_7-Pad7)*%
X161620000Y-67000000D03*
%TO.P,J3,8,Pin_8_8*%
%TO.N,unconnected-(J3-Pin_8-Pad8)*%
X161620000Y-64460000D03*
%TD*%
D10*
%TO.P,J4,1,Pin_1_1*%
%TO.N,Net-(J4-Pin_1)*%
X162000000Y-127200000D03*
D11*
%TO.P,J4,2,Pin_2_2*%
%TO.N,Net-(J4-Pin_2)*%
X162000000Y-129740000D03*
%TO.P,J4,3,Pin_3_3*%
%TO.N,unconnected-(J4-Pin_3-Pad3)*%
X159460000Y-127200000D03*
%TO.P,J4,4,Pin_4_4*%
%TO.N,unconnected-(J4-Pin_4-Pad4)*%
X159460000Y-129740000D03*
%TO.P,J4,5,Pin_5_5*%
%TO.N,unconnected-(J4-Pin_5-Pad5)*%
X156920000Y-127200000D03*
%TO.P,J4,6,Pin_6_6*%
%TO.N,unconnected-(J4-Pin_6-Pad6)*%
X156920000Y-129740000D03*
%TO.P,J4,7,Pin_7_7*%
%TO.N,unconnected-(J4-Pin_7-Pad7)*%
X154380000Y-127200000D03*
%TO.P,J4,8,Pin_8_8*%
%TO.N,unconnected-(J4-Pin_8-Pad8)*%
X154380000Y-129740000D03*
%TD*%
D12*
%TO.P,R1,1*%
%TO.N,Net-(J4-Pin_1)*%
X165750000Y-110800000D03*
%TO.P,R1,2*%
%TO.N,Net-(J1-Pin_1)*%
X167400000Y-110800000D03*
%TD*%
%TO.P,R2,1*%
%TO.N,Net-(J4-Pin_2)*%
X165775000Y-107800000D03*
%TO.P,R2,2*%
%TO.N,Net-(J2-Pin_1)*%
X167425000Y-107800000D03*
%TD*%
D13*
%TO.P,J1,1,Pin_1_1*%
%TO.N,Net-(J1-Pin_1)*%
X166400000Y-100600000D03*
%TD*%
%TO.P,J2,1,Pin_1_1*%
%TO.N,Net-(J2-Pin_1)*%
X166400000Y-103000000D03*
%TD*%
%TO.N,Net-(J1-Pin_1)*%
D14*
X168800000Y-103000000D02*
X166400000Y-100600000D01*
X168800000Y-108800000D02*
X168800000Y-103000000D01*
X167400000Y-110800000D02*
X167400000Y-110200000D01*
X167400000Y-110200000D02*
X168800000Y-108800000D01*
%TO.N,Net-(J2-Pin_1)*%
X167425000Y-107800000D02*
X167425000Y-104025000D01*
X167425000Y-104025000D02*
X166400000Y-103000000D01*
%TO.N,Net-(J4-Pin_1)*%
X162799117Y-114399330D02*
X162799117Y-113750883D01*
X160400000Y-116798447D02*
X162799117Y-114399330D01*
X162000000Y-124600000D02*
X160400000Y-123000000D01*
X162000000Y-127200000D02*
X162000000Y-124600000D01*
X162799117Y-113750883D02*
X165750000Y-110800000D01*
X160400000Y-123000000D02*
X160400000Y-116798447D01*
%TO.N,Net-(J4-Pin_2)*%
X160610000Y-128390000D02*
X160610000Y-125210000D01*
X165600000Y-107800000D02*
X165775000Y-107800000D01*
X162000000Y-113400000D02*
X164200000Y-111200000D01*
X159400000Y-116800000D02*
X162000000Y-114200000D01*
X160600000Y-128400000D02*
X160610000Y-128390000D01*
X162000000Y-114200000D02*
X162000000Y-113400000D01*
X164200000Y-109200000D02*
X165600000Y-107800000D01*
X159400000Y-124000000D02*
X159400000Y-116800000D01*
X162000000Y-129740000D02*
X160660000Y-128400000D01*
X160610000Y-125210000D02*
X159400000Y-124000000D01*
X160660000Y-128400000D02*
X160600000Y-128400000D01*
X164200000Y-111200000D02*
X164200000Y-109200000D01*
%TD*%
M02*
