%TF.GenerationSoftware,KiCad,Pcbnew,10.0.5*%
%TF.CreationDate,2026-08-25T22:20:41-07:00*%
%TF.ProjectId,DE25-nano-brdige,44453235-2d6e-4616-9e6f-2d6272646967,rev?*%
%TF.SameCoordinates,Original*%
%TF.FileFunction,Legend,Top*%
%TF.FilePolarity,Positive*%
%FSLAX46Y46*%
G04 Gerber Fmt 4.6, Leading zero omitted, Abs format (unit mm)*
G04 Created by KiCad (PCBNEW 10.0.5) date 2026-08-25 22:20:41*
%MOMM*%
%LPD*%
G01*
G04 APERTURE LIST*
%ADD10C,0.150000*%
%ADD11C,0.120000*%
G04 APERTURE END LIST*
D10*
X151124819Y-66063333D02*
X151839104Y-66063333D01*
X151839104Y-66063333D02*
X151981961Y-66110952D01*
X151981961Y-66110952D02*
X152077200Y-66206190D01*
X152077200Y-66206190D02*
X152124819Y-66349047D01*
X152124819Y-66349047D02*
X152124819Y-66444285D01*
X151124819Y-65682380D02*
X151124819Y-65063333D01*
X151124819Y-65063333D02*
X151505771Y-65396666D01*
X151505771Y-65396666D02*
X151505771Y-65253809D01*
X151505771Y-65253809D02*
X151553390Y-65158571D01*
X151553390Y-65158571D02*
X151601009Y-65110952D01*
X151601009Y-65110952D02*
X151696247Y-65063333D01*
X151696247Y-65063333D02*
X151934342Y-65063333D01*
X151934342Y-65063333D02*
X152029580Y-65110952D01*
X152029580Y-65110952D02*
X152077200Y-65158571D01*
X152077200Y-65158571D02*
X152124819Y-65253809D01*
X152124819Y-65253809D02*
X152124819Y-65539523D01*
X152124819Y-65539523D02*
X152077200Y-65634761D01*
X152077200Y-65634761D02*
X152029580Y-65682380D01*
X163784819Y-128803333D02*
X164499104Y-128803333D01*
X164499104Y-128803333D02*
X164641961Y-128850952D01*
X164641961Y-128850952D02*
X164737200Y-128946190D01*
X164737200Y-128946190D02*
X164784819Y-129089047D01*
X164784819Y-129089047D02*
X164784819Y-129184285D01*
X164118152Y-127898571D02*
X164784819Y-127898571D01*
X163737200Y-128136666D02*
X164451485Y-128374761D01*
X164451485Y-128374761D02*
X164451485Y-127755714D01*
X166408333Y-109824819D02*
X166075000Y-109348628D01*
X165836905Y-109824819D02*
X165836905Y-108824819D01*
X165836905Y-108824819D02*
X166217857Y-108824819D01*
X166217857Y-108824819D02*
X166313095Y-108872438D01*
X166313095Y-108872438D02*
X166360714Y-108920057D01*
X166360714Y-108920057D02*
X166408333Y-109015295D01*
X166408333Y-109015295D02*
X166408333Y-109158152D01*
X166408333Y-109158152D02*
X166360714Y-109253390D01*
X166360714Y-109253390D02*
X166313095Y-109301009D01*
X166313095Y-109301009D02*
X166217857Y-109348628D01*
X166217857Y-109348628D02*
X165836905Y-109348628D01*
X167360714Y-109824819D02*
X166789286Y-109824819D01*
X167075000Y-109824819D02*
X167075000Y-108824819D01*
X167075000Y-108824819D02*
X166979762Y-108967676D01*
X166979762Y-108967676D02*
X166884524Y-109062914D01*
X166884524Y-109062914D02*
X166789286Y-109110533D01*
X166433333Y-106824819D02*
X166100000Y-106348628D01*
X165861905Y-106824819D02*
X165861905Y-105824819D01*
X165861905Y-105824819D02*
X166242857Y-105824819D01*
X166242857Y-105824819D02*
X166338095Y-105872438D01*
X166338095Y-105872438D02*
X166385714Y-105920057D01*
X166385714Y-105920057D02*
X166433333Y-106015295D01*
X166433333Y-106015295D02*
X166433333Y-106158152D01*
X166433333Y-106158152D02*
X166385714Y-106253390D01*
X166385714Y-106253390D02*
X166338095Y-106301009D01*
X166338095Y-106301009D02*
X166242857Y-106348628D01*
X166242857Y-106348628D02*
X165861905Y-106348628D01*
X166814286Y-105920057D02*
X166861905Y-105872438D01*
X166861905Y-105872438D02*
X166957143Y-105824819D01*
X166957143Y-105824819D02*
X167195238Y-105824819D01*
X167195238Y-105824819D02*
X167290476Y-105872438D01*
X167290476Y-105872438D02*
X167338095Y-105920057D01*
X167338095Y-105920057D02*
X167385714Y-106015295D01*
X167385714Y-106015295D02*
X167385714Y-106110533D01*
X167385714Y-106110533D02*
X167338095Y-106253390D01*
X167338095Y-106253390D02*
X166766667Y-106824819D01*
X166766667Y-106824819D02*
X167385714Y-106824819D01*
%TO.C,J3*%
D11*
X152670000Y-63130000D02*
X162950000Y-63130000D01*
X152670000Y-65730000D02*
X152670000Y-63130000D01*
X152670000Y-68330000D02*
X152670000Y-67000000D01*
X154000000Y-68330000D02*
X152670000Y-68330000D01*
X155270000Y-65730000D02*
X152670000Y-65730000D01*
X155270000Y-68330000D02*
X155270000Y-65730000D01*
X155270000Y-68330000D02*
X162950000Y-68330000D01*
X162950000Y-68330000D02*
X162950000Y-63130000D01*
%TO.C,J4*%
X153050000Y-125870000D02*
X153050000Y-131070000D01*
X160730000Y-125870000D02*
X153050000Y-125870000D01*
X160730000Y-125870000D02*
X160730000Y-128470000D01*
X160730000Y-128470000D02*
X163330000Y-128470000D01*
X162000000Y-125870000D02*
X163330000Y-125870000D01*
X163330000Y-125870000D02*
X163330000Y-127200000D01*
X163330000Y-128470000D02*
X163330000Y-131070000D01*
X163330000Y-131070000D02*
X153050000Y-131070000D01*
%TO.C,R1*%
X166337742Y-110277500D02*
X166812258Y-110277500D01*
X166337742Y-111322500D02*
X166812258Y-111322500D01*
%TO.C,R2*%
X166362742Y-107277500D02*
X166837258Y-107277500D01*
X166362742Y-108322500D02*
X166837258Y-108322500D01*
%TD*%
M02*
